<mxfile host="Electron" modified="2024-03-16T20:16:54.886Z" agent="Mozilla/5.0 (Windows NT 10.0; Win64; x64) AppleWebKit/537.36 (KHTML, like Gecko) draw.io/24.0.4 Chrome/120.0.6099.109 Electron/28.1.0 Safari/537.36" etag="s06P6vjf3BKpx_muqMgW" version="24.0.4" type="device">
  <diagram name="Pagina-1" id="9Z7VVtSeizJUr1VxpQ9W">
    <mxGraphModel dx="1407" dy="688" grid="1" gridSize="10" guides="1" tooltips="1" connect="1" arrows="1" fold="1" page="1" pageScale="1" pageWidth="827" pageHeight="1169" math="0" shadow="0">
      <root>
        <mxCell id="0" />
        <mxCell id="1" parent="0" />
        <mxCell id="0IsIETKDK94HUo3vrF7z-1" style="edgeStyle=orthogonalEdgeStyle;rounded=0;orthogonalLoop=1;jettySize=auto;html=1;exitX=0;exitY=0.5;exitDx=0;exitDy=0;entryX=1;entryY=0.5;entryDx=0;entryDy=0;endArrow=doubleBlock;endFill=1;" edge="1" parent="1" source="0IsIETKDK94HUo3vrF7z-6" target="0IsIETKDK94HUo3vrF7z-48">
          <mxGeometry relative="1" as="geometry" />
        </mxCell>
        <mxCell id="0IsIETKDK94HUo3vrF7z-2" style="edgeStyle=orthogonalEdgeStyle;rounded=0;orthogonalLoop=1;jettySize=auto;html=1;exitX=0.5;exitY=1;exitDx=0;exitDy=0;entryX=0.5;entryY=0;entryDx=0;entryDy=0;endArrow=doubleBlock;endFill=1;" edge="1" parent="1" source="0IsIETKDK94HUo3vrF7z-6" target="0IsIETKDK94HUo3vrF7z-49">
          <mxGeometry relative="1" as="geometry" />
        </mxCell>
        <mxCell id="0IsIETKDK94HUo3vrF7z-3" style="edgeStyle=orthogonalEdgeStyle;rounded=0;orthogonalLoop=1;jettySize=auto;html=1;exitX=0.5;exitY=0;exitDx=0;exitDy=0;entryX=0;entryY=0.5;entryDx=0;entryDy=0;" edge="1" parent="1" source="0IsIETKDK94HUo3vrF7z-6" target="0IsIETKDK94HUo3vrF7z-76">
          <mxGeometry relative="1" as="geometry" />
        </mxCell>
        <mxCell id="0IsIETKDK94HUo3vrF7z-4" style="edgeStyle=orthogonalEdgeStyle;rounded=0;orthogonalLoop=1;jettySize=auto;html=1;exitX=0.5;exitY=0;exitDx=0;exitDy=0;entryX=0;entryY=0.5;entryDx=0;entryDy=0;" edge="1" parent="1" source="0IsIETKDK94HUo3vrF7z-6" target="0IsIETKDK94HUo3vrF7z-74">
          <mxGeometry relative="1" as="geometry" />
        </mxCell>
        <mxCell id="0IsIETKDK94HUo3vrF7z-5" style="edgeStyle=orthogonalEdgeStyle;rounded=0;orthogonalLoop=1;jettySize=auto;html=1;exitX=0.5;exitY=0;exitDx=0;exitDy=0;entryX=0;entryY=0.5;entryDx=0;entryDy=0;" edge="1" parent="1" source="0IsIETKDK94HUo3vrF7z-6" target="0IsIETKDK94HUo3vrF7z-72">
          <mxGeometry relative="1" as="geometry" />
        </mxCell>
        <mxCell id="0IsIETKDK94HUo3vrF7z-6" value="CINEMA" style="rounded=0;whiteSpace=wrap;html=1;" vertex="1" parent="1">
          <mxGeometry x="310" y="700" width="120" height="60" as="geometry" />
        </mxCell>
        <mxCell id="0IsIETKDK94HUo3vrF7z-7" style="edgeStyle=orthogonalEdgeStyle;rounded=0;orthogonalLoop=1;jettySize=auto;html=1;exitX=0.5;exitY=0;exitDx=0;exitDy=0;entryX=0.5;entryY=1;entryDx=0;entryDy=0;" edge="1" parent="1" source="0IsIETKDK94HUo3vrF7z-12" target="0IsIETKDK94HUo3vrF7z-49">
          <mxGeometry relative="1" as="geometry" />
        </mxCell>
        <mxCell id="0IsIETKDK94HUo3vrF7z-8" style="edgeStyle=orthogonalEdgeStyle;rounded=0;orthogonalLoop=1;jettySize=auto;html=1;exitX=1;exitY=0.5;exitDx=0;exitDy=0;entryX=0;entryY=0.5;entryDx=0;entryDy=0;endArrow=doubleBlock;endFill=1;" edge="1" parent="1" source="0IsIETKDK94HUo3vrF7z-12" target="0IsIETKDK94HUo3vrF7z-55">
          <mxGeometry relative="1" as="geometry">
            <mxPoint x="560" y="1060" as="targetPoint" />
          </mxGeometry>
        </mxCell>
        <mxCell id="0IsIETKDK94HUo3vrF7z-9" style="edgeStyle=orthogonalEdgeStyle;rounded=0;orthogonalLoop=1;jettySize=auto;html=1;exitX=0.25;exitY=1;exitDx=0;exitDy=0;entryX=0;entryY=0.5;entryDx=0;entryDy=0;" edge="1" parent="1" source="0IsIETKDK94HUo3vrF7z-12" target="0IsIETKDK94HUo3vrF7z-78">
          <mxGeometry relative="1" as="geometry" />
        </mxCell>
        <mxCell id="0IsIETKDK94HUo3vrF7z-10" style="edgeStyle=orthogonalEdgeStyle;rounded=0;orthogonalLoop=1;jettySize=auto;html=1;exitX=0.25;exitY=1;exitDx=0;exitDy=0;entryX=0;entryY=0.5;entryDx=0;entryDy=0;" edge="1" parent="1" source="0IsIETKDK94HUo3vrF7z-12" target="0IsIETKDK94HUo3vrF7z-80">
          <mxGeometry relative="1" as="geometry" />
        </mxCell>
        <mxCell id="0IsIETKDK94HUo3vrF7z-11" style="edgeStyle=orthogonalEdgeStyle;rounded=0;orthogonalLoop=1;jettySize=auto;html=1;exitX=0.25;exitY=1;exitDx=0;exitDy=0;entryX=0;entryY=0.5;entryDx=0;entryDy=0;" edge="1" parent="1" source="0IsIETKDK94HUo3vrF7z-12" target="0IsIETKDK94HUo3vrF7z-82">
          <mxGeometry relative="1" as="geometry" />
        </mxCell>
        <mxCell id="0IsIETKDK94HUo3vrF7z-12" value="THEATER" style="rounded=0;whiteSpace=wrap;html=1;" vertex="1" parent="1">
          <mxGeometry x="310" y="1030" width="120" height="60" as="geometry" />
        </mxCell>
        <mxCell id="0IsIETKDK94HUo3vrF7z-13" style="edgeStyle=orthogonalEdgeStyle;rounded=0;orthogonalLoop=1;jettySize=auto;html=1;exitX=0.5;exitY=0;exitDx=0;exitDy=0;entryX=0.5;entryY=1;entryDx=0;entryDy=0;endArrow=doubleBlock;endFill=1;" edge="1" parent="1" source="0IsIETKDK94HUo3vrF7z-20" target="0IsIETKDK94HUo3vrF7z-42">
          <mxGeometry relative="1" as="geometry" />
        </mxCell>
        <mxCell id="0IsIETKDK94HUo3vrF7z-14" style="edgeStyle=orthogonalEdgeStyle;rounded=0;orthogonalLoop=1;jettySize=auto;html=1;exitX=0.5;exitY=1;exitDx=0;exitDy=0;entryX=0.5;entryY=1;entryDx=0;entryDy=0;endArrow=doubleBlock;endFill=1;" edge="1" parent="1" source="0IsIETKDK94HUo3vrF7z-54" target="0IsIETKDK94HUo3vrF7z-54">
          <mxGeometry relative="1" as="geometry">
            <mxPoint x="634.3000000000002" y="875.04" as="targetPoint" />
          </mxGeometry>
        </mxCell>
        <mxCell id="0IsIETKDK94HUo3vrF7z-15" style="edgeStyle=orthogonalEdgeStyle;rounded=0;orthogonalLoop=1;jettySize=auto;html=1;exitX=1;exitY=0.25;exitDx=0;exitDy=0;entryX=0;entryY=0.5;entryDx=0;entryDy=0;" edge="1" parent="1" source="0IsIETKDK94HUo3vrF7z-20" target="0IsIETKDK94HUo3vrF7z-84">
          <mxGeometry relative="1" as="geometry" />
        </mxCell>
        <mxCell id="0IsIETKDK94HUo3vrF7z-16" style="edgeStyle=orthogonalEdgeStyle;rounded=0;orthogonalLoop=1;jettySize=auto;html=1;exitX=1;exitY=0.25;exitDx=0;exitDy=0;entryX=0;entryY=0.5;entryDx=0;entryDy=0;" edge="1" parent="1" source="0IsIETKDK94HUo3vrF7z-20" target="0IsIETKDK94HUo3vrF7z-86">
          <mxGeometry relative="1" as="geometry" />
        </mxCell>
        <mxCell id="0IsIETKDK94HUo3vrF7z-17" style="edgeStyle=orthogonalEdgeStyle;rounded=0;orthogonalLoop=1;jettySize=auto;html=1;exitX=1;exitY=0.25;exitDx=0;exitDy=0;entryX=0;entryY=0.5;entryDx=0;entryDy=0;" edge="1" parent="1" source="0IsIETKDK94HUo3vrF7z-20" target="0IsIETKDK94HUo3vrF7z-88">
          <mxGeometry relative="1" as="geometry" />
        </mxCell>
        <mxCell id="0IsIETKDK94HUo3vrF7z-18" style="edgeStyle=orthogonalEdgeStyle;rounded=0;orthogonalLoop=1;jettySize=auto;html=1;exitX=1;exitY=0.25;exitDx=0;exitDy=0;entryX=0;entryY=0.5;entryDx=0;entryDy=0;" edge="1" parent="1" source="0IsIETKDK94HUo3vrF7z-20" target="0IsIETKDK94HUo3vrF7z-90">
          <mxGeometry relative="1" as="geometry" />
        </mxCell>
        <mxCell id="0IsIETKDK94HUo3vrF7z-19" style="edgeStyle=orthogonalEdgeStyle;rounded=0;orthogonalLoop=1;jettySize=auto;html=1;exitX=1;exitY=0.25;exitDx=0;exitDy=0;entryX=0;entryY=0.5;entryDx=0;entryDy=0;" edge="1" parent="1" source="0IsIETKDK94HUo3vrF7z-20" target="0IsIETKDK94HUo3vrF7z-92">
          <mxGeometry relative="1" as="geometry" />
        </mxCell>
        <mxCell id="0IsIETKDK94HUo3vrF7z-20" value="MOVIE" style="rounded=0;whiteSpace=wrap;html=1;" vertex="1" parent="1">
          <mxGeometry x="540" y="554.5" width="120" height="60" as="geometry" />
        </mxCell>
        <mxCell id="0IsIETKDK94HUo3vrF7z-21" style="edgeStyle=orthogonalEdgeStyle;rounded=0;orthogonalLoop=1;jettySize=auto;html=1;exitX=0.5;exitY=0;exitDx=0;exitDy=0;entryX=0.5;entryY=1;entryDx=0;entryDy=0;" edge="1" parent="1">
          <mxGeometry relative="1" as="geometry">
            <mxPoint x="848" y="740" as="sourcePoint" />
            <mxPoint x="849" y="320" as="targetPoint" />
          </mxGeometry>
        </mxCell>
        <mxCell id="0IsIETKDK94HUo3vrF7z-22" style="edgeStyle=orthogonalEdgeStyle;rounded=0;orthogonalLoop=1;jettySize=auto;html=1;exitX=0.5;exitY=1;exitDx=0;exitDy=0;entryX=0.5;entryY=0;entryDx=0;entryDy=0;" edge="1" parent="1">
          <mxGeometry relative="1" as="geometry">
            <mxPoint x="849" y="800" as="sourcePoint" />
            <mxPoint x="850" y="860" as="targetPoint" />
          </mxGeometry>
        </mxCell>
        <mxCell id="0IsIETKDK94HUo3vrF7z-23" style="edgeStyle=orthogonalEdgeStyle;rounded=0;orthogonalLoop=1;jettySize=auto;html=1;exitX=1;exitY=0.25;exitDx=0;exitDy=0;entryX=0;entryY=0.5;entryDx=0;entryDy=0;" edge="1" parent="1" source="0IsIETKDK94HUo3vrF7z-25" target="0IsIETKDK94HUo3vrF7z-100">
          <mxGeometry relative="1" as="geometry" />
        </mxCell>
        <mxCell id="0IsIETKDK94HUo3vrF7z-24" style="edgeStyle=orthogonalEdgeStyle;rounded=0;orthogonalLoop=1;jettySize=auto;html=1;exitX=1;exitY=0.25;exitDx=0;exitDy=0;entryX=0;entryY=0.5;entryDx=0;entryDy=0;" edge="1" parent="1" source="0IsIETKDK94HUo3vrF7z-25" target="0IsIETKDK94HUo3vrF7z-98">
          <mxGeometry relative="1" as="geometry">
            <Array as="points">
              <mxPoint x="940" y="755" />
              <mxPoint x="940" y="750" />
            </Array>
          </mxGeometry>
        </mxCell>
        <mxCell id="0IsIETKDK94HUo3vrF7z-25" value="TICKET" style="rounded=0;whiteSpace=wrap;html=1;" vertex="1" parent="1">
          <mxGeometry x="789" y="740" width="120" height="60" as="geometry" />
        </mxCell>
        <mxCell id="0IsIETKDK94HUo3vrF7z-26" style="edgeStyle=orthogonalEdgeStyle;rounded=0;orthogonalLoop=1;jettySize=auto;html=1;exitX=0.5;exitY=1;exitDx=0;exitDy=0;entryX=0.5;entryY=0;entryDx=0;entryDy=0;endArrow=doubleBlock;endFill=1;" edge="1" parent="1" source="0IsIETKDK94HUo3vrF7z-32" target="0IsIETKDK94HUo3vrF7z-42">
          <mxGeometry relative="1" as="geometry" />
        </mxCell>
        <mxCell id="0IsIETKDK94HUo3vrF7z-27" style="edgeStyle=orthogonalEdgeStyle;rounded=0;orthogonalLoop=1;jettySize=auto;html=1;exitX=1;exitY=0.5;exitDx=0;exitDy=0;entryX=0;entryY=0.5;entryDx=0;entryDy=0;endArrow=doubleBlock;endFill=1;" edge="1" parent="1" source="0IsIETKDK94HUo3vrF7z-32" target="0IsIETKDK94HUo3vrF7z-50">
          <mxGeometry relative="1" as="geometry" />
        </mxCell>
        <mxCell id="0IsIETKDK94HUo3vrF7z-28" style="edgeStyle=orthogonalEdgeStyle;rounded=0;orthogonalLoop=1;jettySize=auto;html=1;exitX=0.25;exitY=0;exitDx=0;exitDy=0;entryX=0;entryY=0.5;entryDx=0;entryDy=0;" edge="1" parent="1" source="0IsIETKDK94HUo3vrF7z-32" target="0IsIETKDK94HUo3vrF7z-102">
          <mxGeometry relative="1" as="geometry" />
        </mxCell>
        <mxCell id="0IsIETKDK94HUo3vrF7z-29" style="edgeStyle=orthogonalEdgeStyle;rounded=0;orthogonalLoop=1;jettySize=auto;html=1;exitX=0.25;exitY=0;exitDx=0;exitDy=0;entryX=0;entryY=0.5;entryDx=0;entryDy=0;" edge="1" parent="1" source="0IsIETKDK94HUo3vrF7z-32" target="0IsIETKDK94HUo3vrF7z-104">
          <mxGeometry relative="1" as="geometry" />
        </mxCell>
        <mxCell id="0IsIETKDK94HUo3vrF7z-30" style="edgeStyle=orthogonalEdgeStyle;rounded=0;orthogonalLoop=1;jettySize=auto;html=1;exitX=0.25;exitY=0;exitDx=0;exitDy=0;entryX=0;entryY=0.5;entryDx=0;entryDy=0;" edge="1" parent="1" source="0IsIETKDK94HUo3vrF7z-32" target="0IsIETKDK94HUo3vrF7z-106">
          <mxGeometry relative="1" as="geometry" />
        </mxCell>
        <mxCell id="0IsIETKDK94HUo3vrF7z-31" style="edgeStyle=orthogonalEdgeStyle;rounded=0;orthogonalLoop=1;jettySize=auto;html=1;exitX=0.25;exitY=0;exitDx=0;exitDy=0;entryX=0;entryY=0.5;entryDx=0;entryDy=0;" edge="1" parent="1" source="0IsIETKDK94HUo3vrF7z-32" target="0IsIETKDK94HUo3vrF7z-108">
          <mxGeometry relative="1" as="geometry" />
        </mxCell>
        <mxCell id="0IsIETKDK94HUo3vrF7z-32" value="CUSTOMER" style="rounded=0;whiteSpace=wrap;html=1;" vertex="1" parent="1">
          <mxGeometry x="540" y="250" width="120" height="60" as="geometry" />
        </mxCell>
        <mxCell id="0IsIETKDK94HUo3vrF7z-33" style="edgeStyle=orthogonalEdgeStyle;rounded=0;orthogonalLoop=1;jettySize=auto;html=1;exitX=1;exitY=0.5;exitDx=0;exitDy=0;entryX=0;entryY=0.5;entryDx=0;entryDy=0;" edge="1" parent="1" source="0IsIETKDK94HUo3vrF7z-38" target="0IsIETKDK94HUo3vrF7z-48">
          <mxGeometry relative="1" as="geometry" />
        </mxCell>
        <mxCell id="0IsIETKDK94HUo3vrF7z-34" style="edgeStyle=orthogonalEdgeStyle;rounded=0;orthogonalLoop=1;jettySize=auto;html=1;exitX=0.5;exitY=0;exitDx=0;exitDy=0;entryX=0;entryY=0.5;entryDx=0;entryDy=0;" edge="1" parent="1" source="0IsIETKDK94HUo3vrF7z-38" target="0IsIETKDK94HUo3vrF7z-70">
          <mxGeometry relative="1" as="geometry" />
        </mxCell>
        <mxCell id="0IsIETKDK94HUo3vrF7z-35" style="edgeStyle=orthogonalEdgeStyle;rounded=0;orthogonalLoop=1;jettySize=auto;html=1;exitX=0.5;exitY=0;exitDx=0;exitDy=0;entryX=0;entryY=0.5;entryDx=0;entryDy=0;" edge="1" parent="1" source="0IsIETKDK94HUo3vrF7z-38" target="0IsIETKDK94HUo3vrF7z-68">
          <mxGeometry relative="1" as="geometry" />
        </mxCell>
        <mxCell id="0IsIETKDK94HUo3vrF7z-36" style="edgeStyle=orthogonalEdgeStyle;rounded=0;orthogonalLoop=1;jettySize=auto;html=1;exitX=0.5;exitY=0;exitDx=0;exitDy=0;entryX=0;entryY=0.5;entryDx=0;entryDy=0;" edge="1" parent="1" source="0IsIETKDK94HUo3vrF7z-38" target="0IsIETKDK94HUo3vrF7z-66">
          <mxGeometry relative="1" as="geometry" />
        </mxCell>
        <mxCell id="0IsIETKDK94HUo3vrF7z-37" style="edgeStyle=orthogonalEdgeStyle;rounded=0;orthogonalLoop=1;jettySize=auto;html=1;exitX=0.5;exitY=0;exitDx=0;exitDy=0;entryX=0;entryY=0.5;entryDx=0;entryDy=0;" edge="1" parent="1" source="0IsIETKDK94HUo3vrF7z-38" target="0IsIETKDK94HUo3vrF7z-64">
          <mxGeometry relative="1" as="geometry" />
        </mxCell>
        <mxCell id="0IsIETKDK94HUo3vrF7z-38" value="EMPLOYEE" style="rounded=0;whiteSpace=wrap;html=1;" vertex="1" parent="1">
          <mxGeometry x="-50" y="700" width="120" height="60" as="geometry" />
        </mxCell>
        <mxCell id="0IsIETKDK94HUo3vrF7z-39" style="edgeStyle=orthogonalEdgeStyle;rounded=0;orthogonalLoop=1;jettySize=auto;html=1;exitX=1;exitY=0;exitDx=0;exitDy=0;entryX=0;entryY=0.5;entryDx=0;entryDy=0;" edge="1" parent="1" source="0IsIETKDK94HUo3vrF7z-42" target="0IsIETKDK94HUo3vrF7z-110">
          <mxGeometry relative="1" as="geometry" />
        </mxCell>
        <mxCell id="0IsIETKDK94HUo3vrF7z-40" style="edgeStyle=orthogonalEdgeStyle;rounded=0;orthogonalLoop=1;jettySize=auto;html=1;exitX=1;exitY=0;exitDx=0;exitDy=0;entryX=0;entryY=0.5;entryDx=0;entryDy=0;" edge="1" parent="1" source="0IsIETKDK94HUo3vrF7z-42" target="0IsIETKDK94HUo3vrF7z-112">
          <mxGeometry relative="1" as="geometry" />
        </mxCell>
        <mxCell id="0IsIETKDK94HUo3vrF7z-41" style="edgeStyle=orthogonalEdgeStyle;rounded=0;orthogonalLoop=1;jettySize=auto;html=1;exitX=1;exitY=0;exitDx=0;exitDy=0;entryX=0;entryY=0.5;entryDx=0;entryDy=0;" edge="1" parent="1" source="0IsIETKDK94HUo3vrF7z-42" target="0IsIETKDK94HUo3vrF7z-114">
          <mxGeometry relative="1" as="geometry" />
        </mxCell>
        <mxCell id="0IsIETKDK94HUo3vrF7z-42" value="REVIEW" style="rhombus;whiteSpace=wrap;html=1;" vertex="1" parent="1">
          <mxGeometry x="560" y="390" width="80" height="80" as="geometry" />
        </mxCell>
        <mxCell id="0IsIETKDK94HUo3vrF7z-43" style="edgeStyle=orthogonalEdgeStyle;rounded=0;orthogonalLoop=1;jettySize=auto;html=1;exitX=0.5;exitY=0;exitDx=0;exitDy=0;entryX=0.5;entryY=1;entryDx=0;entryDy=0;endArrow=classic;endFill=1;" edge="1" parent="1" source="0IsIETKDK94HUo3vrF7z-47" target="0IsIETKDK94HUo3vrF7z-54">
          <mxGeometry relative="1" as="geometry" />
        </mxCell>
        <mxCell id="0IsIETKDK94HUo3vrF7z-44" style="edgeStyle=orthogonalEdgeStyle;rounded=0;orthogonalLoop=1;jettySize=auto;html=1;exitX=0.5;exitY=1;exitDx=0;exitDy=0;entryX=0.5;entryY=0;entryDx=0;entryDy=0;" edge="1" parent="1" source="0IsIETKDK94HUo3vrF7z-47" target="0IsIETKDK94HUo3vrF7z-55">
          <mxGeometry relative="1" as="geometry" />
        </mxCell>
        <mxCell id="0IsIETKDK94HUo3vrF7z-45" style="edgeStyle=orthogonalEdgeStyle;rounded=0;orthogonalLoop=1;jettySize=auto;html=1;exitX=0.75;exitY=1;exitDx=0;exitDy=0;entryX=0;entryY=0.5;entryDx=0;entryDy=0;" edge="1" parent="1" source="0IsIETKDK94HUo3vrF7z-47" target="0IsIETKDK94HUo3vrF7z-94">
          <mxGeometry relative="1" as="geometry" />
        </mxCell>
        <mxCell id="0IsIETKDK94HUo3vrF7z-46" style="edgeStyle=orthogonalEdgeStyle;rounded=0;orthogonalLoop=1;jettySize=auto;html=1;exitX=0.75;exitY=1;exitDx=0;exitDy=0;entryX=0;entryY=0.5;entryDx=0;entryDy=0;" edge="1" parent="1" source="0IsIETKDK94HUo3vrF7z-47" target="0IsIETKDK94HUo3vrF7z-96">
          <mxGeometry relative="1" as="geometry" />
        </mxCell>
        <mxCell id="0IsIETKDK94HUo3vrF7z-47" value="PROGRAMMAZIONE" style="rounded=0;whiteSpace=wrap;html=1;" vertex="1" parent="1">
          <mxGeometry x="540" y="870" width="120" height="60" as="geometry" />
        </mxCell>
        <mxCell id="0IsIETKDK94HUo3vrF7z-48" value="LAVORA" style="rhombus;whiteSpace=wrap;html=1;" vertex="1" parent="1">
          <mxGeometry x="150" y="690" width="80" height="80" as="geometry" />
        </mxCell>
        <mxCell id="0IsIETKDK94HUo3vrF7z-49" value="CONTIENE" style="rhombus;whiteSpace=wrap;html=1;" vertex="1" parent="1">
          <mxGeometry x="330" y="850" width="80" height="80" as="geometry" />
        </mxCell>
        <mxCell id="0IsIETKDK94HUo3vrF7z-50" value="ACQUISTA" style="rhombus;whiteSpace=wrap;html=1;" vertex="1" parent="1">
          <mxGeometry x="810" y="240" width="80" height="80" as="geometry" />
        </mxCell>
        <mxCell id="0IsIETKDK94HUo3vrF7z-51" value="" style="endArrow=none;html=1;rounded=0;" edge="1" parent="1">
          <mxGeometry width="50" height="50" relative="1" as="geometry">
            <mxPoint x="297.05" y="750" as="sourcePoint" />
            <mxPoint x="297.05" y="710" as="targetPoint" />
          </mxGeometry>
        </mxCell>
        <mxCell id="0IsIETKDK94HUo3vrF7z-52" value="" style="endArrow=none;html=1;rounded=0;" edge="1" parent="1">
          <mxGeometry width="50" height="50" relative="1" as="geometry">
            <mxPoint x="390" y="773" as="sourcePoint" />
            <mxPoint x="350" y="773" as="targetPoint" />
          </mxGeometry>
        </mxCell>
        <mxCell id="0IsIETKDK94HUo3vrF7z-53" value="" style="edgeStyle=orthogonalEdgeStyle;rounded=0;orthogonalLoop=1;jettySize=auto;html=1;exitX=0.5;exitY=1;exitDx=0;exitDy=0;entryX=0.5;entryY=0;entryDx=0;entryDy=0;endArrow=doubleBlock;endFill=1;" edge="1" parent="1" source="0IsIETKDK94HUo3vrF7z-20" target="0IsIETKDK94HUo3vrF7z-54">
          <mxGeometry relative="1" as="geometry">
            <mxPoint x="600" y="615" as="sourcePoint" />
            <mxPoint x="600" y="870" as="targetPoint" />
          </mxGeometry>
        </mxCell>
        <mxCell id="0IsIETKDK94HUo3vrF7z-54" value="PROIETTA" style="rhombus;whiteSpace=wrap;html=1;" vertex="1" parent="1">
          <mxGeometry x="560" y="690" width="80" height="80" as="geometry" />
        </mxCell>
        <mxCell id="0IsIETKDK94HUo3vrF7z-55" value="PROPONE" style="rhombus;whiteSpace=wrap;html=1;" vertex="1" parent="1">
          <mxGeometry x="560" y="1020" width="80" height="80" as="geometry" />
        </mxCell>
        <mxCell id="0IsIETKDK94HUo3vrF7z-56" value="" style="edgeStyle=orthogonalEdgeStyle;rounded=0;orthogonalLoop=1;jettySize=auto;html=1;exitX=1;exitY=0.5;exitDx=0;exitDy=0;entryX=0;entryY=0.5;entryDx=0;entryDy=0;endArrow=doubleBlock;endFill=1;" edge="1" parent="1" source="0IsIETKDK94HUo3vrF7z-47" target="0IsIETKDK94HUo3vrF7z-57">
          <mxGeometry relative="1" as="geometry">
            <mxPoint x="660" y="900" as="sourcePoint" />
            <mxPoint x="849" y="800" as="targetPoint" />
          </mxGeometry>
        </mxCell>
        <mxCell id="0IsIETKDK94HUo3vrF7z-57" value="VENDE" style="rhombus;whiteSpace=wrap;html=1;" vertex="1" parent="1">
          <mxGeometry x="810" y="860" width="80" height="80" as="geometry" />
        </mxCell>
        <mxCell id="0IsIETKDK94HUo3vrF7z-58" value="" style="endArrow=none;html=1;rounded=0;" edge="1" parent="1">
          <mxGeometry width="50" height="50" relative="1" as="geometry">
            <mxPoint x="440" y="1080" as="sourcePoint" />
            <mxPoint x="440" y="1040" as="targetPoint" />
          </mxGeometry>
        </mxCell>
        <mxCell id="0IsIETKDK94HUo3vrF7z-59" value="" style="endArrow=none;html=1;rounded=0;" edge="1" parent="1">
          <mxGeometry width="50" height="50" relative="1" as="geometry">
            <mxPoint x="670" y="920" as="sourcePoint" />
            <mxPoint x="670" y="880" as="targetPoint" />
          </mxGeometry>
        </mxCell>
        <mxCell id="0IsIETKDK94HUo3vrF7z-60" value="" style="endArrow=none;html=1;rounded=0;" edge="1" parent="1">
          <mxGeometry width="50" height="50" relative="1" as="geometry">
            <mxPoint x="620" y="630" as="sourcePoint" />
            <mxPoint x="580" y="630" as="targetPoint" />
          </mxGeometry>
        </mxCell>
        <mxCell id="0IsIETKDK94HUo3vrF7z-61" value="" style="endArrow=none;html=1;rounded=0;" edge="1" parent="1">
          <mxGeometry width="50" height="50" relative="1" as="geometry">
            <mxPoint x="620" y="540" as="sourcePoint" />
            <mxPoint x="580" y="540" as="targetPoint" />
          </mxGeometry>
        </mxCell>
        <mxCell id="0IsIETKDK94HUo3vrF7z-62" value="" style="endArrow=none;html=1;rounded=0;" edge="1" parent="1">
          <mxGeometry width="50" height="50" relative="1" as="geometry">
            <mxPoint x="620" y="320" as="sourcePoint" />
            <mxPoint x="580" y="320" as="targetPoint" />
          </mxGeometry>
        </mxCell>
        <mxCell id="0IsIETKDK94HUo3vrF7z-63" value="" style="endArrow=none;html=1;rounded=0;" edge="1" parent="1">
          <mxGeometry width="50" height="50" relative="1" as="geometry">
            <mxPoint x="670" y="300" as="sourcePoint" />
            <mxPoint x="670" y="260" as="targetPoint" />
          </mxGeometry>
        </mxCell>
        <mxCell id="0IsIETKDK94HUo3vrF7z-64" value="" style="ellipse;whiteSpace=wrap;html=1;aspect=fixed;" vertex="1" parent="1">
          <mxGeometry x="30" y="600" width="15" height="15" as="geometry" />
        </mxCell>
        <mxCell id="0IsIETKDK94HUo3vrF7z-65" value="FirstName" style="text;html=1;align=left;verticalAlign=middle;whiteSpace=wrap;rounded=0;" vertex="1" parent="1">
          <mxGeometry x="45" y="597.5" width="60" height="20" as="geometry" />
        </mxCell>
        <mxCell id="0IsIETKDK94HUo3vrF7z-66" value="" style="ellipse;whiteSpace=wrap;html=1;aspect=fixed;" vertex="1" parent="1">
          <mxGeometry x="30" y="620" width="15" height="15" as="geometry" />
        </mxCell>
        <mxCell id="0IsIETKDK94HUo3vrF7z-67" value="LastName" style="text;html=1;align=left;verticalAlign=middle;whiteSpace=wrap;rounded=0;" vertex="1" parent="1">
          <mxGeometry x="45" y="617.5" width="60" height="20" as="geometry" />
        </mxCell>
        <mxCell id="0IsIETKDK94HUo3vrF7z-68" value="" style="ellipse;whiteSpace=wrap;html=1;aspect=fixed;" vertex="1" parent="1">
          <mxGeometry x="30" y="640" width="15" height="15" as="geometry" />
        </mxCell>
        <mxCell id="0IsIETKDK94HUo3vrF7z-69" value="Position" style="text;html=1;align=left;verticalAlign=middle;whiteSpace=wrap;rounded=0;" vertex="1" parent="1">
          <mxGeometry x="45" y="637.5" width="60" height="20" as="geometry" />
        </mxCell>
        <mxCell id="0IsIETKDK94HUo3vrF7z-70" value="" style="ellipse;whiteSpace=wrap;html=1;aspect=fixed;" vertex="1" parent="1">
          <mxGeometry x="30" y="657.5" width="15" height="15" as="geometry" />
        </mxCell>
        <mxCell id="0IsIETKDK94HUo3vrF7z-71" value="HireDate" style="text;html=1;align=left;verticalAlign=middle;whiteSpace=wrap;rounded=0;" vertex="1" parent="1">
          <mxGeometry x="45" y="655" width="60" height="20" as="geometry" />
        </mxCell>
        <mxCell id="0IsIETKDK94HUo3vrF7z-72" value="" style="ellipse;whiteSpace=wrap;html=1;aspect=fixed;" vertex="1" parent="1">
          <mxGeometry x="390" y="602.5" width="15" height="15" as="geometry" />
        </mxCell>
        <mxCell id="0IsIETKDK94HUo3vrF7z-73" value="Name" style="text;html=1;align=left;verticalAlign=middle;whiteSpace=wrap;rounded=0;" vertex="1" parent="1">
          <mxGeometry x="405" y="600" width="60" height="20" as="geometry" />
        </mxCell>
        <mxCell id="0IsIETKDK94HUo3vrF7z-74" value="" style="ellipse;whiteSpace=wrap;html=1;aspect=fixed;" vertex="1" parent="1">
          <mxGeometry x="390" y="622.5" width="15" height="15" as="geometry" />
        </mxCell>
        <mxCell id="0IsIETKDK94HUo3vrF7z-75" value="Address" style="text;html=1;align=left;verticalAlign=middle;whiteSpace=wrap;rounded=0;" vertex="1" parent="1">
          <mxGeometry x="405" y="620" width="60" height="20" as="geometry" />
        </mxCell>
        <mxCell id="0IsIETKDK94HUo3vrF7z-76" value="" style="ellipse;whiteSpace=wrap;html=1;aspect=fixed;" vertex="1" parent="1">
          <mxGeometry x="390" y="640" width="15" height="15" as="geometry" />
        </mxCell>
        <mxCell id="0IsIETKDK94HUo3vrF7z-77" value="Phone" style="text;html=1;align=left;verticalAlign=middle;whiteSpace=wrap;rounded=0;" vertex="1" parent="1">
          <mxGeometry x="405" y="637.5" width="60" height="20" as="geometry" />
        </mxCell>
        <mxCell id="0IsIETKDK94HUo3vrF7z-78" value="" style="ellipse;whiteSpace=wrap;html=1;aspect=fixed;" vertex="1" parent="1">
          <mxGeometry x="376" y="1114.5" width="15" height="15" as="geometry" />
        </mxCell>
        <mxCell id="0IsIETKDK94HUo3vrF7z-79" value="Name" style="text;html=1;align=left;verticalAlign=middle;whiteSpace=wrap;rounded=0;" vertex="1" parent="1">
          <mxGeometry x="391" y="1112" width="60" height="20" as="geometry" />
        </mxCell>
        <mxCell id="0IsIETKDK94HUo3vrF7z-80" value="" style="ellipse;whiteSpace=wrap;html=1;aspect=fixed;" vertex="1" parent="1">
          <mxGeometry x="376" y="1134.5" width="15" height="15" as="geometry" />
        </mxCell>
        <mxCell id="0IsIETKDK94HUo3vrF7z-81" value="Capacity" style="text;html=1;align=left;verticalAlign=middle;whiteSpace=wrap;rounded=0;" vertex="1" parent="1">
          <mxGeometry x="391" y="1132" width="60" height="20" as="geometry" />
        </mxCell>
        <mxCell id="0IsIETKDK94HUo3vrF7z-82" value="" style="ellipse;whiteSpace=wrap;html=1;aspect=fixed;" vertex="1" parent="1">
          <mxGeometry x="376" y="1152" width="15" height="15" as="geometry" />
        </mxCell>
        <mxCell id="0IsIETKDK94HUo3vrF7z-83" value="ScreenType" style="text;html=1;align=left;verticalAlign=middle;whiteSpace=wrap;rounded=0;" vertex="1" parent="1">
          <mxGeometry x="391" y="1149.5" width="60" height="20" as="geometry" />
        </mxCell>
        <mxCell id="0IsIETKDK94HUo3vrF7z-84" value="" style="ellipse;whiteSpace=wrap;html=1;aspect=fixed;" vertex="1" parent="1">
          <mxGeometry x="700" y="532.5" width="15" height="15" as="geometry" />
        </mxCell>
        <mxCell id="0IsIETKDK94HUo3vrF7z-85" value="Movie" style="text;html=1;align=left;verticalAlign=middle;whiteSpace=wrap;rounded=0;" vertex="1" parent="1">
          <mxGeometry x="715" y="530" width="60" height="20" as="geometry" />
        </mxCell>
        <mxCell id="0IsIETKDK94HUo3vrF7z-86" value="" style="ellipse;whiteSpace=wrap;html=1;aspect=fixed;" vertex="1" parent="1">
          <mxGeometry x="700" y="552.5" width="15" height="15" as="geometry" />
        </mxCell>
        <mxCell id="0IsIETKDK94HUo3vrF7z-87" value="Title" style="text;html=1;align=left;verticalAlign=middle;whiteSpace=wrap;rounded=0;" vertex="1" parent="1">
          <mxGeometry x="715" y="550" width="60" height="20" as="geometry" />
        </mxCell>
        <mxCell id="0IsIETKDK94HUo3vrF7z-88" value="" style="ellipse;whiteSpace=wrap;html=1;aspect=fixed;" vertex="1" parent="1">
          <mxGeometry x="700" y="570" width="15" height="15" as="geometry" />
        </mxCell>
        <mxCell id="0IsIETKDK94HUo3vrF7z-89" value="Director" style="text;html=1;align=left;verticalAlign=middle;whiteSpace=wrap;rounded=0;" vertex="1" parent="1">
          <mxGeometry x="715" y="567.5" width="60" height="20" as="geometry" />
        </mxCell>
        <mxCell id="0IsIETKDK94HUo3vrF7z-90" value="" style="ellipse;whiteSpace=wrap;html=1;aspect=fixed;" vertex="1" parent="1">
          <mxGeometry x="700" y="590" width="15" height="15" as="geometry" />
        </mxCell>
        <mxCell id="0IsIETKDK94HUo3vrF7z-91" value="ReleaseDate" style="text;html=1;align=left;verticalAlign=middle;whiteSpace=wrap;rounded=0;" vertex="1" parent="1">
          <mxGeometry x="715" y="587.5" width="60" height="20" as="geometry" />
        </mxCell>
        <mxCell id="0IsIETKDK94HUo3vrF7z-92" value="" style="ellipse;whiteSpace=wrap;html=1;aspect=fixed;" vertex="1" parent="1">
          <mxGeometry x="700" y="610" width="15" height="15" as="geometry" />
        </mxCell>
        <mxCell id="0IsIETKDK94HUo3vrF7z-93" value="Rating" style="text;html=1;align=left;verticalAlign=middle;whiteSpace=wrap;rounded=0;" vertex="1" parent="1">
          <mxGeometry x="715" y="607.5" width="60" height="20" as="geometry" />
        </mxCell>
        <mxCell id="0IsIETKDK94HUo3vrF7z-94" value="" style="ellipse;whiteSpace=wrap;html=1;aspect=fixed;" vertex="1" parent="1">
          <mxGeometry x="690" y="942.5" width="15" height="15" as="geometry" />
        </mxCell>
        <mxCell id="0IsIETKDK94HUo3vrF7z-95" value="ShowDateTime" style="text;html=1;align=left;verticalAlign=middle;whiteSpace=wrap;rounded=0;" vertex="1" parent="1">
          <mxGeometry x="705" y="940" width="60" height="20" as="geometry" />
        </mxCell>
        <mxCell id="0IsIETKDK94HUo3vrF7z-96" value="" style="ellipse;whiteSpace=wrap;html=1;aspect=fixed;" vertex="1" parent="1">
          <mxGeometry x="690" y="962.5" width="15" height="15" as="geometry" />
        </mxCell>
        <mxCell id="0IsIETKDK94HUo3vrF7z-97" value="Price" style="text;html=1;align=left;verticalAlign=middle;whiteSpace=wrap;rounded=0;" vertex="1" parent="1">
          <mxGeometry x="705" y="960" width="60" height="20" as="geometry" />
        </mxCell>
        <mxCell id="0IsIETKDK94HUo3vrF7z-98" value="" style="ellipse;whiteSpace=wrap;html=1;aspect=fixed;" vertex="1" parent="1">
          <mxGeometry x="948" y="742.5" width="15" height="15" as="geometry" />
        </mxCell>
        <mxCell id="0IsIETKDK94HUo3vrF7z-99" value="ShowDateTime" style="text;html=1;align=left;verticalAlign=middle;whiteSpace=wrap;rounded=0;" vertex="1" parent="1">
          <mxGeometry x="963" y="740" width="60" height="20" as="geometry" />
        </mxCell>
        <mxCell id="0IsIETKDK94HUo3vrF7z-100" value="" style="ellipse;whiteSpace=wrap;html=1;aspect=fixed;" vertex="1" parent="1">
          <mxGeometry x="948" y="762.5" width="15" height="15" as="geometry" />
        </mxCell>
        <mxCell id="0IsIETKDK94HUo3vrF7z-101" value="Price" style="text;html=1;align=left;verticalAlign=middle;whiteSpace=wrap;rounded=0;" vertex="1" parent="1">
          <mxGeometry x="963" y="760" width="60" height="20" as="geometry" />
        </mxCell>
        <mxCell id="0IsIETKDK94HUo3vrF7z-102" value="" style="ellipse;whiteSpace=wrap;html=1;aspect=fixed;" vertex="1" parent="1">
          <mxGeometry x="615" y="152.5" width="15" height="15" as="geometry" />
        </mxCell>
        <mxCell id="0IsIETKDK94HUo3vrF7z-103" value="FirstName" style="text;html=1;align=left;verticalAlign=middle;whiteSpace=wrap;rounded=0;" vertex="1" parent="1">
          <mxGeometry x="630" y="150" width="60" height="20" as="geometry" />
        </mxCell>
        <mxCell id="0IsIETKDK94HUo3vrF7z-104" value="" style="ellipse;whiteSpace=wrap;html=1;aspect=fixed;" vertex="1" parent="1">
          <mxGeometry x="615" y="172.5" width="15" height="15" as="geometry" />
        </mxCell>
        <mxCell id="0IsIETKDK94HUo3vrF7z-105" value="LastName" style="text;html=1;align=left;verticalAlign=middle;whiteSpace=wrap;rounded=0;" vertex="1" parent="1">
          <mxGeometry x="630" y="170" width="60" height="20" as="geometry" />
        </mxCell>
        <mxCell id="0IsIETKDK94HUo3vrF7z-106" value="" style="ellipse;whiteSpace=wrap;html=1;aspect=fixed;" vertex="1" parent="1">
          <mxGeometry x="615" y="190" width="15" height="15" as="geometry" />
        </mxCell>
        <mxCell id="0IsIETKDK94HUo3vrF7z-107" value="Email" style="text;html=1;align=left;verticalAlign=middle;whiteSpace=wrap;rounded=0;" vertex="1" parent="1">
          <mxGeometry x="630" y="187.5" width="60" height="20" as="geometry" />
        </mxCell>
        <mxCell id="0IsIETKDK94HUo3vrF7z-108" value="" style="ellipse;whiteSpace=wrap;html=1;aspect=fixed;" vertex="1" parent="1">
          <mxGeometry x="615" y="210" width="15" height="15" as="geometry" />
        </mxCell>
        <mxCell id="0IsIETKDK94HUo3vrF7z-109" value="PhoneNumber" style="text;html=1;align=left;verticalAlign=middle;whiteSpace=wrap;rounded=0;" vertex="1" parent="1">
          <mxGeometry x="630" y="207.5" width="60" height="20" as="geometry" />
        </mxCell>
        <mxCell id="0IsIETKDK94HUo3vrF7z-110" value="" style="ellipse;whiteSpace=wrap;html=1;aspect=fixed;" vertex="1" parent="1">
          <mxGeometry x="680" y="402.5" width="15" height="15" as="geometry" />
        </mxCell>
        <mxCell id="0IsIETKDK94HUo3vrF7z-111" value="ReviewText" style="text;html=1;align=left;verticalAlign=middle;whiteSpace=wrap;rounded=0;" vertex="1" parent="1">
          <mxGeometry x="695" y="400" width="60" height="20" as="geometry" />
        </mxCell>
        <mxCell id="0IsIETKDK94HUo3vrF7z-112" value="" style="ellipse;whiteSpace=wrap;html=1;aspect=fixed;" vertex="1" parent="1">
          <mxGeometry x="680" y="422.5" width="15" height="15" as="geometry" />
        </mxCell>
        <mxCell id="0IsIETKDK94HUo3vrF7z-113" value="Rating" style="text;html=1;align=left;verticalAlign=middle;whiteSpace=wrap;rounded=0;" vertex="1" parent="1">
          <mxGeometry x="695" y="420" width="60" height="20" as="geometry" />
        </mxCell>
        <mxCell id="0IsIETKDK94HUo3vrF7z-114" value="" style="ellipse;whiteSpace=wrap;html=1;aspect=fixed;" vertex="1" parent="1">
          <mxGeometry x="680" y="440" width="15" height="15" as="geometry" />
        </mxCell>
        <mxCell id="0IsIETKDK94HUo3vrF7z-115" value="ReviewDate" style="text;html=1;align=left;verticalAlign=middle;whiteSpace=wrap;rounded=0;" vertex="1" parent="1">
          <mxGeometry x="695" y="437.5" width="60" height="20" as="geometry" />
        </mxCell>
      </root>
    </mxGraphModel>
  </diagram>
</mxfile>
